<!--?xml version="1.0" standalone="no"?-->
              <svg id="sw-js-blob-svg" viewBox="0 0 100 100" xmlns="http://www.w3.org/2000/svg" version="1.1">
                    <defs> 
                        <linearGradient id="sw-gradient" x1="0" x2="1" y1="1" y2="0">
                            <stop id="stop1" stop-color="rgba(255, 255, 255, 1)" offset="0%"></stop>
                            <stop id="stop2" stop-color="rgba(251, 168, 31, 1)" offset="100%"></stop>
                        </linearGradient>
                    </defs>
                <path fill="url(#sw-gradient)" d="M20.4,-22.9C27,-18.7,33.3,-12.9,36.5,-5C39.6,2.9,39.6,12.9,35.7,21.5C31.8,30.2,24.1,37.6,15.8,38.6C7.5,39.5,-1.4,34,-9.1,29.3C-16.8,24.7,-23.3,20.9,-28.8,14.9C-34.3,8.9,-38.9,0.6,-38.6,-7.8C-38.3,-16.3,-33.2,-24.8,-25.9,-28.9C-18.7,-32.9,-9.4,-32.4,-1.2,-30.9C6.9,-29.4,13.7,-27,20.4,-22.9Z" width="100%" height="100%" transform="translate(50 50)" stroke-width="0" style="transition: all 0.3s ease 0s;"></path>
              </svg>